<svg xmlns="http://www.w3.org/2000/svg" width="50" height="50" viewBox="0 0 264.583 264.583" xmlns:v="https://vecta.io/nano"><circle cx="132.292" cy="132.292" r="119.063" fill="#fff"/><path d="M184.103 173.039c-9.077 4.841-19.503-.012-27.922 6.585-8.391 5.78-11.407 18.792-21.733 21.636-7.788 2.12-16.705-3.117-18.893-10.949-1.283-3.037-1.343-16.207-.091-21.769 1.397-3.43 1.125-8.242.768-10.058-.888-2.437-.995-4.244-1.638-8.119-.837-2.011-1.455-9.315-2.747-14.831.66-8.51 5.737-16.905 15.05-19.91 8.417-2.927 17.558 2.952 23.315 7.382 4.217 4.074 11.439 10.554 18.427 13.555 7.451 3.313 14.808 6.29 20.285 12.515 6.504 6.495 2.923 16.104-3.179 22.237-.74 1.026-.802.988-1.643 1.724zm-86.587 1.574c-7.947 2.016-10.627-1.311-15.896-3.52-6.102-6.736-16.024-16.013-11.081-25.854 4.041-10.374 16.101-8.303 23.727-3.494 9.05 4.625 14.106 14.957 11.305 25.04-1.41 3.636-4.635 6.19-8.056 7.827zm70.1-49.655c-9.936-1.362-12.235-11.569-14.184-19.501-.873-1.905 1.45-14.573 2.939-15.905 3.341-7.671 18.416-12.66 23.567-3.588 3.236 3.021 3.836 10.819 4.506 12.854.778 1.498.399 9.742.448 12.039-1.184 2.198-3.216 10.862-9.689 13.016-3.202 1.007.345.657-7.586 1.086zm-36.523-19.307c-9.371 3.237-18.071-8.188-19.043-12.204-2.67-4.45-5.179-18.961.828-26.286 5.464-8.466 18.284-7.926 22.654.572 4.292 8.415 3.548 9.765 4.461 20.022-.42 7.176-1.315 14.482-8.9 17.896zm-33.61 21.228c-8.329 2.817-17.033-2.448-21.725-8.729-5.824-5.702-11.434-16.751-5.326-24.361 5.448-8.074 17.64-4.865 24.368-.351 7.635 6.38 14.965 17.321 9.974 27.308-1.915 2.55-4.475 4.652-7.291 6.134zM66.015 47.281c-3.931 2.673-7.638 5.745-10.852 9.287-5.422 5.849-9.8 12.591-13.617 19.598-4.133 10.756-5.785 22.194-8.437 33.362-1.764 14.18-.159 28.41 1.993 42.485.633 4.457 1.428 8.897 2.662 13.23 2.617 9.439 6.616 18.581 11.995 26.797 3.204 4.982 7.079 9.452 10.919 13.969 7.892 9.05 17.07 17.094 27.715 22.834 7.794 4.209 16.405 7.059 25.256 7.781 8.908.083 17.881 1.291 26.742-.151 17.684-2.216 34.805-8.774 49.423-18.922 11.427-7.933 21.398-18.07 28.829-29.904 2.01-3.262 3.915-6.59 5.77-9.943 3.634-6.721 6.643-13.854 7.544-21.491.394-3.194.329-6.486-.013-9.763-1.364-17.537-7.126-34.478-14.888-50.195-1.882-3.477-4.041-6.826-6.122-10.215-6.094-9.688-12.639-19.1-20.187-27.686-12.099-12.475-27.617-21.457-44.447-25.853-2.398-.65-4.888-.978-7.189-1.951-11.254-3.947-23.862-4.365-35.104-.181-3.683 1.46-7.285 3.116-11.009 4.474-9.255 3.528-18.781 6.678-26.983 12.438zm13.473 5.91c9.31-5.383 18.607-11.138 29.033-14.107 5.04-1.453 10.351-2.214 15.584-1.536 9.581 1.046 18.395 5.196 27.398 8.327 2.34.872 4.776 1.456 7.111 2.334 10.951 4.364 20.301 12.062 27.802 21.056 4.63 5.479 8.508 11.537 12.154 17.701 7.488 12.109 14.274 24.884 17.812 38.754 1.135 4.268 1.653 8.662 2.568 12.976 1.55 8.311 2.218 17.028-.012 25.28-.869 3.246-2.302 6.311-3.993 9.204-7.764 16.2-20.694 29.808-36.323 38.628-10.159 7.552-22.398 11.881-34.82 13.872-8.194 1.346-16.52 1.65-24.809 1.507-5.206.147-10.248-1.446-15.159-2.985-5.952-1.898-11.649-4.59-16.852-8.054-12.61-8.335-22.378-20.544-28.819-34.141-2.666-5.726-4.807-11.674-7.08-17.561-4.634-12.427-8.586-25.322-9.247-38.651-.285-5.7.494-11.387 1.569-16.973 2.066-10.29 5.659-20.186 9.303-30 .718-1.437 1.817-2.64 2.746-3.942 6.626-8.597 14.961-15.779 24.034-21.689z"/></svg>
